# File created by Blade
# Date/Time:  Wed Jan 21 17:47:32 2015
# Frame Rate: 120.000 fps
#------------------------------------------------------
:FULLY-SPECIFIED
:DEGREES
475
root 13.396526 32.149374 -19.378884 -159.120337 43.343258 -206.153915
Spine 16.515873 17.070349 29.053151
Head -5.779927 -11.651756 -14.951430
LeftShoulder -16.531117 -19.730635 4.778653
LeftArm -31.096884 4.128057 -32.724904
LeftForeArm -2.202511 0.000000 1.116352
LeftHand -4.739436 -0.000000 0.047266
LeftHandThumb1 -26.253704 0.000000 33.147579
RightShoulder 8.278202 -0.346513 -14.801321
RightArm 16.185024 12.620676 24.336243
RightForeArm -23.672222 -0.000000 8.222258
RightHand -4.384804 -0.000000 -3.945974
RightHandThumb1 -24.326973 -0.000000 -32.862282
LeftUpLeg -19.736509 -12.147324 -5.310837
LeftLeg -0.906595 -0.000000 0.000000
LeftFoot -34.719927 15.421485 -18.794994
LeftToeBase 25.850371 -0.000000 -0.000000
RightUpLeg -69.687959 -32.042077 0.748731
RightLeg -7.921462 -0.000000 0.000000
RightFoot 18.386216 -37.339459 -2.087370
RightToeBase 26.473969 -0.000000 -0.000000
476
root 13.372159 32.149663 -19.342619 -158.972917 43.099178 -206.443823
Spine 17.069533 17.310247 29.763117
Head -6.077413 -11.053206 -15.378947
LeftShoulder -16.655641 -19.768476 4.975614
LeftArm -31.285124 4.261387 -32.167294
LeftForeArm -2.104868 -0.000000 1.149762
LeftHand -4.902404 0.000000 0.168570
LeftHandThumb1 -26.253704 0.000000 33.147579
RightShoulder 8.399961 -0.098313 -15.205044
RightArm 15.707728 12.960818 23.733676
RightForeArm -23.892779 -0.000000 8.162069
RightHand -4.470097 -0.000000 -3.831026
RightHandThumb1 -24.326973 -0.000000 -32.862282
LeftUpLeg -20.205309 -12.543489 -5.295581
LeftLeg -0.819902 -0.000000 0.000000
LeftFoot -34.714285 15.494686 -18.854314
LeftToeBase 25.833946 -0.000000 -0.000000
RightUpLeg -70.275327 -32.364781 1.084545
RightLeg -7.933765 -0.000000 0.000000
RightFoot 18.339958 -37.258406 -2.037049
RightToeBase 26.599118 -0.000000 -0.000000
477
root 13.349556 32.149956 -19.304046 -158.814287 42.831525 -206.717787
Spine 17.598079 17.519604 30.495623
Head -6.367857 -10.419614 -15.822251
LeftShoulder -16.728971 -19.805626 5.135752
LeftArm -31.476585 4.483174 -31.666924
LeftForeArm -2.190157 -0.000000 1.077132
LeftHand -4.989686 -0.000000 0.422505
LeftHandThumb1 -26.253704 0.000000 33.147579
RightShoulder 8.470784 0.076343 -15.660067
RightArm 15.345461 13.240763 23.180112
RightForeArm -23.953947 0.000000 8.051044
RightHand -4.475375 -0.000000 -3.733356
RightHandThumb1 -24.326973 -0.000000 -32.862282
LeftUpLeg -20.696873 -12.992645 -5.236447
LeftLeg -0.696394 -0.000000 0.000000
LeftFoot -34.741560 15.582355 -18.913124
LeftToeBase 25.904874 -0.000000 -0.000000
RightUpLeg -70.880796 -32.711431 1.478668
RightLeg -7.941111 -0.000000 0.000000
RightFoot 18.326995 -37.063929 -2.078185
RightToeBase 26.655314 -0.000000 -0.000000
478
root 13.327738 32.148400 -19.269034 -158.673166 42.628667 -206.982190
Spine 18.150801 17.717527 31.199701
Head -6.640411 -9.734754 -16.261450
LeftShoulder -16.806874 -19.740877 5.273407
LeftArm -31.630656 4.601714 -31.153002
LeftForeArm -2.278952 0.000000 0.935356
LeftHand -5.024606 0.000000 0.525905
LeftHandThumb1 -26.253704 0.000000 33.147579
RightShoulder 8.624978 0.335329 -16.106701
RightArm 14.874145 13.416957 22.642001
RightForeArm -24.152838 -0.000000 7.993647
RightHand -4.511999 -0.000000 -3.715052
RightHandThumb1 -24.326973 -0.000000 -32.862282
LeftUpLeg -21.158281 -13.343264 -5.215219
LeftLeg -0.570197 -0.000000 0.000000
LeftFoot -34.772531 15.634263 -18.930350
LeftToeBase 25.971454 -0.000000 -0.000000
RightUpLeg -71.437820 -32.986754 1.812375
RightLeg -7.971216 -0.000000 0.000000
RightFoot 18.321824 -36.926805 -2.083484
RightToeBase 26.607726 -0.000000 -0.000000
479
root 13.314878 32.148958 -19.235907 -158.503250 42.394892 -207.137072
Spine 18.746986 17.817577 32.027457
Head -6.927719 -9.032092 -16.802658
LeftShoulder -16.890894 -19.667697 5.327043
LeftArm -31.860333 4.733183 -30.645247
LeftForeArm -2.258917 -0.000000 0.937060
LeftHand -5.294793 -0.000000 0.772549
LeftHandThumb1 -26.253704 0.000000 33.147579
RightShoulder 8.787823 0.415805 -16.590885
RightArm 14.515728 13.591620 22.059235
RightForeArm -24.310075 0.000000 7.939177
RightHand -4.578439 -0.000000 -3.765069
RightHandThumb1 -24.326973 -0.000000 -32.862282
LeftUpLeg -21.574485 -13.673468 -5.110872
LeftLeg -0.425440 -0.000000 0.000000
LeftFoot -34.819839 15.636385 -18.999001
LeftToeBase 26.112931 -0.000000 -0.000000
RightUpLeg -71.880538 -33.264248 2.224860
RightLeg -8.090960 -0.000000 0.000000
RightFoot 18.377161 -36.737719 -2.146655
RightToeBase 26.671959 -0.000000 -0.000000
480
root 13.296309 32.147018 -19.204496 -158.390718 42.222026 -207.395330
Spine 19.298045 17.923798 32.702884
Head -7.182282 -8.268742 -17.307303
LeftShoulder -17.009969 -19.644747 5.488958
LeftArm -32.081899 4.922042 -30.181647
LeftForeArm -2.435098 -0.000000 0.766566
LeftHand -5.314026 -0.000000 0.967058
LeftHandThumb1 -26.253704 0.000000 33.147579
RightShoulder 9.010732 0.567593 -17.041726
RightArm 14.100622 13.758370 21.523568
RightForeArm -24.585880 -0.000000 7.884906
RightHand -4.589845 -0.000000 -3.737639
RightHandThumb1 -24.326973 -0.000000 -32.862282
LeftUpLeg -21.997530 -13.973493 -5.104219
LeftLeg -0.282126 -0.000000 0.000000
LeftFoot -34.853043 15.646657 -19.026534
LeftToeBase 26.123695 -0.000000 -0.000000
RightUpLeg -72.349433 -33.502408 2.494544
RightLeg -8.162264 -0.000000 0.000000
RightFoot 18.409320 -36.591306 -2.183946
RightToeBase 26.776630 -0.000000 -0.000000
481
root 13.276250 32.143815 -19.169842 -158.299027 42.084188 -207.670052
Spine 19.891916 18.112976 33.321097
Head -7.472727 -7.629147 -17.677701
LeftShoulder -17.059531 -19.593700 5.691780
LeftArm -32.318743 5.045947 -29.774432
LeftForeArm -2.649370 -0.000000 0.625299
LeftHand -5.378915 -0.000000 1.161860
LeftHandThumb1 -26.253704 0.000000 33.147579
RightShoulder 9.105495 0.634699 -17.416751
RightArm 13.771090 13.851321 20.945367
RightForeArm -24.820427 -0.000000 7.836607
RightHand -4.676575 -0.000000 -3.726096
RightHandThumb1 -24.326973 -0.000000 -32.862282
LeftUpLeg -22.411239 -14.242746 -5.117773
LeftLeg -0.144413 -0.000000 0.000000
LeftFoot -34.894263 15.640329 -19.058360
LeftToeBase 26.110582 -0.000000 -0.000000
RightUpLeg -72.831809 -33.707064 2.730063
RightLeg -8.187623 -0.000000 0.000000
RightFoot 18.390879 -36.423901 -2.190049
RightToeBase 26.833542 -0.000000 -0.000000
482
root 13.258327 32.141652 -19.137231 -158.180532 41.927896 -207.938526
Spine 20.460094 18.224561 33.939700
Head -7.879378 -6.906746 -18.123401
LeftShoulder -17.260809 -19.481136 5.832558
LeftArm -32.358081 5.183745 -29.333898
LeftForeArm -2.845060 -0.000000 0.396220
LeftHand -5.451918 -0.000000 1.185985
LeftHandThumb1 -26.253704 0.000000 33.147579
RightShoulder 9.187438 0.729775 -17.886556
RightArm 13.515880 13.897503 20.468984
RightForeArm -25.114969 -0.000000 7.791228
RightHand -4.779132 -0.000000 -3.597365
RightHandThumb1 -24.326973 -0.000000 -32.862282
LeftUpLeg -22.839230 -14.519303 -5.119379
LeftLeg -0.013524 -0.000000 0.000000
LeftFoot -34.916111 15.617049 -19.126019
LeftToeBase 25.934162 -0.000000 -0.000000
RightUpLeg -73.343775 -33.932043 3.008930
RightLeg -8.231429 -0.000000 0.000000
RightFoot 18.405881 -36.247639 -2.228469
RightToeBase 26.907994 -0.000000 -0.000000
